<svg width="32" height="32" viewBox="0 0 32 32" fill="none" xmlns="http://www.w3.org/2000/svg">
  <!-- Loconomy Icon Variant - Space Constrained Areas -->
  
  <!-- Background circle -->
  <circle cx="16" cy="16" r="15" fill="url(#gradient-icon)" stroke="rgba(255,255,255,0.2)" stroke-width="1"/>
  
  <!-- Location pin icon -->
  <path d="M16 6c-3.314 0-6 2.686-6 6 0 4.5 6 12 6 12s6-7.5 6-12c0-3.314-2.686-6-6-6z" fill="white"/>
  <circle cx="16" cy="12" r="2.5" fill="url(#gradient-icon)"/>
  
  <!-- Service connection dots -->
  <circle cx="9" cy="21" r="1.5" fill="rgba(255,255,255,0.8)"/>
  <circle cx="23" cy="21" r="1.5" fill="rgba(255,255,255,0.8)"/>
  <circle cx="16" cy="27" r="1.5" fill="rgba(255,255,255,0.8)"/>
  
  <!-- Connection lines -->
  <path d="M16 18 L9 21 L16 27 L23 21 Z" stroke="rgba(255,255,255,0.4)" stroke-width="1.5" fill="none"/>
  
  <!-- Additional network effect -->
  <circle cx="6" cy="16" r="1" fill="rgba(255,255,255,0.5)"/>
  <circle cx="26" cy="16" r="1" fill="rgba(255,255,255,0.5)"/>
  <path d="M7 16 L15 12" stroke="rgba(255,255,255,0.3)" stroke-width="1"/>
  <path d="M25 16 L17 12" stroke="rgba(255,255,255,0.3)" stroke-width="1"/>
  
  <!-- Gradients -->
  <defs>
    <linearGradient id="gradient-icon" x1="0%" y1="0%" x2="100%" y2="100%">
      <stop offset="0%" style="stop-color:#3B82F6;stop-opacity:1" />
      <stop offset="100%" style="stop-color:#8B5CF6;stop-opacity:1" />
    </linearGradient>
  </defs>
</svg>